<svg id="Layer_1" data-name="Layer 1" xmlns="http://www.w3.org/2000/svg" xmlns:xlink="http://www.w3.org/1999/xlink" viewBox="0 0 734.8 848.4"><defs><style>.cls-1{fill:#4cafd6;}.cls-2{opacity:0.25;fill:url(#linear-gradient);}.cls-2,.cls-5{isolation:isolate;}.cls-3,.cls-5{fill:#282923;}.cls-4{fill:none;}.cls-5{font-size:100.32px;font-family:OpenSans-Bold, Open Sans;font-weight:700;}</style><linearGradient id="linear-gradient" x1="366.14" y1="981.59" x2="367.44" y2="518.07" gradientTransform="matrix(1, 0, 0, -1, 0, 860)" gradientUnits="userSpaceOnUse"><stop offset="0" stop-color="#fff" stop-opacity="0.83"/><stop offset="0.56" stop-color="#fff" stop-opacity="0.37"/><stop offset="1" stop-color="#fff" stop-opacity="0"/></linearGradient></defs><title>aha_logo</title><path class="cls-1" d="M709,233.9,366.9,23.3,25.9,233.9V628.3L367.4,825.5,709,628.3Z" transform="translate(-0.1 -1.8)"/><path class="cls-2" d="M366.9,341.2c128.2,0,238.6-57,287.8-138.8L367.5,36.6h0L79.4,203C128.8,284.5,238.9,341.2,366.9,341.2Z" transform="translate(-0.1 -1.8)"/><path class="cls-3" d="M734.9,638.2V213.9L705.6,197,427.8,36.6,367.5,1.8,307.2,36.6,29.4,197,.1,213.9V638.1L29.4,655,310.7,817.4l56.9,32.8,56.9-32.8L705.8,655ZM29.4,622.3V231.8l50-28.9L367.5,36.6h0L654.7,202.4l50.9,29.4V622.3L367.5,817.5Z" transform="translate(-0.1 -1.8)"/><rect class="cls-4" x="430.69" y="232.63" width="99" height="190.08" transform="translate(-24.91 613.82) rotate(-64)"/><text class="cls-5" transform="translate(382.99 308.25) rotate(26)">aha</text><path class="cls-3" d="M271.62,377.62l11.21,5.47,87.95-180.32-14.23-6.94,24.6-50.43,14.24,6.94,4.81-8.5,28,13.64c.16.08.28.26.44.32C450,165.7,464,183,479.75,198.12q64,61.7,127.93,123.53c1,1,2,2,4,4L414.57,229.5l9.35-19.18-16.73-8.16-60.48,124,10.73,5.23,6.49-13.3,137.39,67c-4.83-.55-8.14-.84-11.43-1.31-47-6.59-93.94-13.06-140.86-20-6-.88-11.6-4-17.72-6.19L312,397.18l10.3,5L196.53,660.14l-50.66-24.71Z" transform="translate(-0.1 -1.8)"/><path class="cls-3" d="M262.43,342.08l-2.34,5.83,27.44,13.38-6.61,13.56-27.25-13.29-3.56,5.5-15-7.33,12.21-25Z" transform="translate(-0.1 -1.8)"/></svg>